HIERARCHY
ROOT Hips
{
	OFFSET 0.00000 0.00000 0.00000
	CHANNELS 6 Xposition Yposition Zposition Zrotation Yrotation Xrotation 
	JOINT LHipJoint
	{
		OFFSET 0 0 0
		CHANNELS 3 Zrotation Yrotation Xrotation
		JOINT LeftUpLeg
		{
			OFFSET 1.53139 -1.83434 0.76626
			CHANNELS 3 Zrotation Yrotation Xrotation
			JOINT LeftLeg
			{
				OFFSET 2.56112 -7.03663 0.00000
				CHANNELS 3 Zrotation Yrotation Xrotation
				JOINT LeftFoot
				{
					OFFSET 2.59983 -7.14299 0.00000
					CHANNELS 3 Zrotation Yrotation Xrotation
					JOINT LeftToeBase
					{
						OFFSET 0.13742 -0.37757 2.00054
						CHANNELS 3 Zrotation Yrotation Xrotation
						End Site
						{
							OFFSET 0.00000 -0.00000 1.02897
						}
					}
				}
			}
		}
	}
	JOINT RHipJoint
	{
		OFFSET 0 0 0
		CHANNELS 3 Zrotation Yrotation Xrotation
		JOINT RightUpLeg
		{
			OFFSET -1.40122 -1.83435 0.76627
			CHANNELS 3 Zrotation Yrotation Xrotation
			JOINT RightLeg
			{
				OFFSET -2.54052 -6.98003 0.00000
				CHANNELS 3 Zrotation Yrotation Xrotation
				JOINT RightFoot
				{
					OFFSET -2.63179 -7.23079 0.00000
					CHANNELS 3 Zrotation Yrotation Xrotation
					JOINT RightToeBase
					{
						OFFSET -0.24131 -0.66299 2.03908
						CHANNELS 3 Zrotation Yrotation Xrotation
						End Site
						{
							OFFSET -0.00000 -0.00000 1.07391
						}
					}
				}
			}
		}
	}
	JOINT LowerBack
	{
		OFFSET 0 0 0
		CHANNELS 3 Zrotation Yrotation Xrotation
		JOINT Spine
		{
			OFFSET 0.01174 2.10302 -0.29778
			CHANNELS 3 Zrotation Yrotation Xrotation
			JOINT Spine1
			{
				OFFSET 0.00772 2.13227 -0.01247
				CHANNELS 3 Zrotation Yrotation Xrotation
				JOINT Neck
				{
					OFFSET 0 0 0
					CHANNELS 3 Zrotation Yrotation Xrotation
					JOINT Neck1
					{
						OFFSET -0.09219 1.60848 0.31481
						CHANNELS 3 Zrotation Yrotation Xrotation
						JOINT Head
						{
							OFFSET 0.13974 1.65456 -0.31134
							CHANNELS 3 Zrotation Yrotation Xrotation
							End Site
							{
								OFFSET 0.04742 1.69515 -0.14578
							}
						}
					}
				}
				JOINT LeftShoulder
				{
					OFFSET 0 0 0
					CHANNELS 3 Zrotation Yrotation Xrotation
					JOINT LeftArm
					{
						OFFSET 3.24909 1.02882 -0.23993
						CHANNELS 3 Zrotation Yrotation Xrotation
						JOINT LeftForeArm
						{
							OFFSET 5.32955 -0.00000 -0.00000
							CHANNELS 3 Zrotation Yrotation Xrotation
							JOINT LeftHand
							{
								OFFSET 3.69232 -0.00000 -0.00000
								CHANNELS 3 Zrotation Yrotation Xrotation
								JOINT LeftFingerBase
								{
									OFFSET 0 0 0
									CHANNELS 3 Zrotation Yrotation Xrotation
									JOINT LeftHandIndex1
									{
										OFFSET 0.53660 -0.00000 -0.00000
										CHANNELS 3 Zrotation Yrotation Xrotation
										End Site
										{
											OFFSET 0.43262 -0.00000 -0.00000
										}
									}
								}
								JOINT LThumb
								{
									OFFSET 0 0 0
									CHANNELS 3 Zrotation Yrotation Xrotation
									End Site
									{
										OFFSET 0.43922 -0.00000 0.43922
									}
								}
							}
						}
					}
				}
				JOINT RightShoulder
				{
					OFFSET 0 0 0
					CHANNELS 3 Zrotation Yrotation Xrotation
					JOINT RightArm
					{
						OFFSET -3.21387 0.93002 -0.34594
						CHANNELS 3 Zrotation Yrotation Xrotation
						JOINT RightForeArm
						{
							OFFSET -5.23431 -0.00000 0.00000
							CHANNELS 3 Zrotation Yrotation Xrotation
							JOINT RightHand
							{
								OFFSET -3.55301 -0.00000 -0.00000
								CHANNELS 3 Zrotation Yrotation Xrotation
								JOINT RightFingerBase
								{
									OFFSET 0 0 0
									CHANNELS 3 Zrotation Yrotation Xrotation
									JOINT RightHandIndex1
									{
										OFFSET -0.77252 -0.00000 -0.00000
										CHANNELS 3 Zrotation Yrotation Xrotation
										End Site
										{
											OFFSET -0.62283 -0.00000 -0.00000
										}
									}
								}
								JOINT RThumb
								{
									OFFSET 0 0 0
									CHANNELS 3 Zrotation Yrotation Xrotation
									End Site
									{
										OFFSET -0.63234 -0.00000 0.63234
									}
								}
							}
						}
					}
				}
			}
		}
	}
}
MOTION
Frames: 11
Frame Time: .0083333
15.352 17.6198 -12.4482 0 0 0 0 0 0 -21 0 0 0 0 0 0 0 0 0 0 0 0 0 0 21 0 0 0 0 0 0 0 0 0 0 0 0 0 0 0 0 0 0 0 0 0 0 -16 0 0 21 0 0 11 0 0 0 -8 0 0 0 0 0 0 0 0 0 0 0 0 0 0 0 0 0 0 0 0 8 0 0 0 0 0 0 0 0 0 0 0 0 0 0 0 0 0
15.3520 17.6198 -12.4482 64.2251 -85.1875 -64.4343 0.0000 0.0000 0.0000 -9.8743 -6.4258 -0.5240 1.0116 6.3993 17.9476 0.0948 -3.5609 -5.6473 3.8459 -11.9524 -35.5638 0.0000 0.0000 0.0000 2.4107 8.8028 4.4579 -1.8792 -8.6098 24.5821 -0.6631 0.7106 -15.1587 -1.0962 6.6534 -18.6924 0.0239 2.7137 12.2116 -0.5176 3.5575 -0.3446 -1.2054 1.7156 -7.1828 -8.6882 0.0470 -24.8295 5.3847 1.6104 29.0818 3.9345 0.3928 13.9399 0.0000 0.0000 0.0000 -87.6125 3.3840 6.2392 14.1113 -22.8936 -2.8713 -0.0000 -0.0000 6.1173 22.8637 15.7167 6.5162 -7.1250 0.0000 -0.0000 -4.6003 46.9098 -0.2173 0.0000 0.0000 0.0000 82.0720 -4.0977 5.8156 -18.5417 28.8452 -4.8077 0.0000 0.0000 4.0765 -16.5837 7.5170 -2.2310 7.1250 -0.0000 -0.0000 7.4509 -22.1627 4.1237
15.3404 17.6284 -12.2903 66.3676 -84.6512 -66.5730 0.0000 0.0000 0.0000 -11.2400 -5.8747 -0.5254 1.0053 6.3799 17.8909 0.1214 -3.0460 -6.2302 3.6133 -11.6273 -34.4258 0.0000 0.0000 0.0000 1.3101 9.1083 4.5582 -1.9056 -8.6667 24.7580 -0.5965 0.4702 -14.4381 -0.8989 6.0426 -16.9082 -0.3435 2.7314 12.1911 -0.5905 3.5228 -0.3675 -1.0700 1.7104 -7.2141 -8.9354 0.0396 -24.8940 5.5428 1.6472 29.3410 4.0601 0.3921 14.0572 -0.0000 0.0000 0.0000 -87.7737 3.3083 6.5675 14.0102 -22.7492 -2.8320 -0.0000 -0.0000 5.9869 23.2816 14.3410 6.0835 -7.1250 0.0000 -0.0000 -3.9453 45.4957 -0.0483 -0.0000 0.0000 0.0000 81.9911 -4.2018 4.8810 -18.4713 28.7565 -4.7738 0.0000 0.0000 4.3731 -16.4646 7.5650 -2.2282 7.1250 -0.0000 -0.0000 7.5361 -22.1184 4.1794
15.3286 17.6374 -12.1349 66.6816 -84.4225 -66.9345 0.0000 0.0000 0.0000 -12.1978 -5.2633 -0.6668 1.0173 6.4169 17.9991 0.1488 -2.6347 -6.8507 3.2767 -11.1301 -32.7199 0.0000 0.0000 0.0000 0.6514 9.5515 4.7997 -1.9286 -8.7157 24.9099 -0.5468 0.2757 -13.8788 -0.5665 4.8205 -13.3973 -0.2726 2.7122 12.1689 -0.6695 3.5010 -0.3150 -1.1858 1.6960 -7.1363 -8.6070 0.0657 -25.2031 5.1705 1.7012 29.6200 3.8794 0.3879 14.2491 0.0000 -0.0000 0.0000 -87.8196 3.0829 6.9758 14.0639 -22.8259 -2.8528 -0.0000 -0.0000 5.9674 23.4256 15.4868 6.5992 -7.1250 0.0000 -0.0000 -4.0240 46.7424 -0.1733 0.0000 -0.0000 0.0000 82.1389 -4.2003 4.0464 -18.4384 28.7149 -4.7580 0.0000 0.0000 4.4224 -16.4620 7.5438 -2.2216 7.1250 -0.0000 -0.0000 7.5387 -22.1403 4.1770
15.3235 17.6525 -11.9835 63.6284 -84.5697 -63.8159 0.0000 0.0000 0.0000 -12.6328 -4.8199 -0.8860 1.0101 6.3949 17.9347 0.1656 -2.0245 -7.2503 3.3291 -11.2096 -32.9900 0.0000 0.0000 0.0000 0.6586 10.0359 4.8706 -1.9630 -8.7886 25.1363 -0.4799 -0.5629 -13.3021 -0.3939 4.0300 -11.1612 0.2262 2.5958 12.1364 -0.5888 3.4253 -0.3454 -1.3659 1.6434 -7.1267 -8.4394 0.0783 -25.2488 4.9230 1.7388 29.6303 3.7572 0.3865 14.2663 0.0000 0.0000 0.0000 -87.8934 3.0275 7.6795 14.4483 -23.3719 -3.0037 -0.0000 -0.0000 6.2258 23.1435 19.8732 8.2673 -7.1250 0.0000 -0.0000 -5.3306 51.3633 -0.8375 0.0000 0.0000 0.0000 82.2572 -4.1916 3.3030 -18.3833 28.6451 -4.7315 0.0000 0.0000 4.4001 -16.7169 7.4874 -2.2412 7.1250 -0.0000 -0.0000 7.3547 -22.1874 4.0654
15.3184 17.6693 -11.8380 61.2131 -84.5344 -61.3185 0.0000 0.0000 0.0000 -13.3152 -4.7112 -0.8572 0.9876 6.3254 17.7314 0.1737 -1.0671 -7.5677 3.5178 -11.4895 -33.9489 0.0000 0.0000 0.0000 0.5592 10.5322 4.8539 -2.0150 -8.8973 25.4747 -0.3936 -1.8336 -12.6617 -0.3549 3.8272 -10.5911 0.4616 2.4886 12.0939 -0.5343 3.3220 -0.4044 -1.4218 1.5856 -7.1575 -8.3652 0.0935 -25.1975 4.7444 1.7856 29.6142 3.6777 0.3887 14.2486 0.0000 0.0000 0.0000 -87.9135 3.0372 8.0270 14.5637 -23.5348 -3.0496 -0.0000 -0.0000 6.3314 23.0910 20.1008 8.3360 -7.1250 0.0000 -0.0000 -5.4476 51.5943 -0.8869 0.0000 0.0000 0.0000 82.4196 -4.2811 2.4783 -18.3938 28.6584 -4.7366 0.0000 0.0000 4.4694 -16.8947 7.5153 -2.2748 7.1250 -0.0000 -0.0000 7.2245 -22.1506 3.9984
15.3056 17.6780 -11.6935 62.7349 -84.0820 -62.9017 0.0000 0.0000 0.0000 -14.6034 -4.7735 -0.4077 0.9518 6.2128 17.4032 0.1768 -0.1057 -7.9042 3.2960 -11.1594 -32.8194 0.0000 0.0000 0.0000 -0.1829 11.0035 4.9186 -2.0859 -9.0428 25.9294 -0.3249 -2.7757 -12.1519 -0.2693 3.3382 -9.2216 0.1223 2.5029 12.0801 -0.6294 3.2844 -0.3672 -1.3231 1.5779 -7.1245 -8.2067 0.1014 -25.2706 4.5451 1.8039 29.7062 3.5770 0.3815 14.3084 0.0000 0.0000 0.0000 -87.9202 2.9991 8.5196 14.6724 -23.6878 -3.0931 -0.0000 -0.0000 6.1933 23.2808 20.3389 8.5056 -7.1250 0.0000 -0.0000 -5.3256 51.8791 -0.9042 0.0000 0.0000 0.0000 82.6073 -4.3561 1.6799 -18.4113 28.6806 -4.7450 0.0000 0.0000 4.2443 -16.8622 7.4191 -2.2413 7.1250 -0.0000 -0.0000 7.2505 -22.2516 3.9962
15.2974 17.6918 -11.5483 62.8162 -83.6575 -63.0048 0.0000 0.0000 0.0000 -15.7276 -4.8576 -0.0029 0.9054 6.0638 16.9697 0.1730 0.5628 -8.0819 2.9758 -10.6558 -31.1278 0.0000 0.0000 0.0000 -0.7998 11.2824 4.8701 -2.1675 -9.2066 26.4438 -0.2520 -3.8145 -11.6721 -0.2036 2.9054 -8.0154 -0.1637 2.4420 12.0434 -0.6501 3.1604 -0.3212 -1.1591 1.5276 -7.0715 -8.2510 0.1372 -25.3447 4.4945 1.9000 29.7678 3.5853 0.4075 14.3437 -0.0000 0.0000 0.0000 -88.0296 2.8655 8.7076 14.7517 -23.7990 -3.1250 -0.0000 -0.0000 6.3556 23.2913 20.8178 8.6985 -7.1250 0.0000 -0.0000 -5.4561 52.3861 -0.9943 -0.0000 0.0000 0.0000 82.6567 -4.3766 1.1595 -18.3973 28.6629 -4.7383 0.0000 0.0000 3.9688 -16.7860 7.3348 -2.2054 7.1250 -0.0000 -0.0000 7.3083 -22.3422 4.0134
15.2926 17.7116 -11.4050 60.8634 -83.4670 -60.9668 0.0000 0.0000 0.0000 -16.3794 -4.5390 0.0402 0.8539 5.8931 16.4746 0.1758 0.5932 -8.1576 2.9398 -10.5970 -30.9323 0.0000 0.0000 0.0000 -0.9951 11.5932 4.7344 -2.2496 -9.3677 26.9525 -0.1514 -5.2109 -11.0702 -0.1253 2.2823 -6.2865 -0.1321 2.2957 11.9321 -0.5910 2.9760 -0.3246 -1.0766 1.4386 -7.0162 -8.4509 0.1800 -25.3969 4.6138 2.0107 29.8538 3.6933 0.4456 14.3788 -0.0000 0.0000 0.0000 -88.1156 2.7767 8.8916 14.8414 -23.9247 -3.1613 -0.0000 -0.0000 6.4975 23.0832 20.9159 8.6511 -7.1250 0.0000 -0.0000 -5.6966 52.4515 -1.0475 -0.0000 0.0000 0.0000 82.7655 -4.3462 0.4856 -18.3464 28.5984 -4.7139 0.0000 0.0000 4.2084 -16.7012 7.4437 -2.2260 7.1250 -0.0000 -0.0000 7.3672 -22.2333 4.0647
15.2889 17.7261 -11.2676 58.7974 -83.4173 -58.8165 0.0000 0.0000 0.0000 -16.8032 -4.2037 0.0562 0.8057 5.7285 15.9986 0.1847 0.3856 -8.2652 2.9552 -10.6222 -31.0162 0.0000 0.0000 0.0000 -0.9314 12.1373 4.6593 -2.3304 -9.5228 27.4448 -0.0314 -6.9324 -10.6032 -0.0433 1.3437 -3.6951 0.0373 2.1826 11.8243 -0.5365 2.8542 -0.3095 -1.0874 1.3753 -6.9353 -8.3362 0.2170 -25.4378 4.4436 2.0829 29.7635 3.6144 0.4692 14.3463 0.0000 0.0000 0.0000 -88.0908 2.6449 9.3023 14.9440 -24.0680 -3.2031 -0.0000 -0.0000 6.4387 22.2306 20.7312 8.2324 -7.1250 0.0000 -0.0000 -6.4991 52.1039 -1.1406 0.0000 0.0000 0.0000 82.9582 -4.2867 -0.2133 -18.3170 28.5612 -4.6998 0.0000 0.0000 4.4452 -16.5274 7.4571 -2.2055 7.1250 -0.0000 -0.0000 7.4934 -22.2270 4.1366
15.2835 17.7426 -11.1342 57.8946 -83.2971 -57.9143 0.0000 0.0000 0.0000 -17.3606 -4.1923 0.3662 0.7593 5.5652 15.5278 0.1890 0.3820 -8.3578 2.6998 -10.1925 -29.6024 0.0000 0.0000 0.0000 -0.9222 12.7324 4.6395 -2.4176 -9.6864 27.9672 0.1045 -8.7458 -10.2319 -0.0005 0.1427 -0.3920 0.0756 2.1633 11.7955 -0.5301 2.8337 -0.2591 -1.0958 1.3645 -6.8640 -8.1193 0.2186 -25.4638 4.1341 2.1067 29.6440 3.4509 0.4643 14.3068 -0.0000 0.0000 0.0000 -87.9695 2.4698 10.0087 15.0267 -24.1833 -3.2369 -0.0000 -0.0000 6.2636 21.8115 20.4336 7.9539 -7.1250 0.0000 -0.0000 -6.8259 51.7190 -1.1338 -0.0000 0.0000 0.0000 83.0783 -4.3265 -0.4667 -18.3209 28.5661 -4.7017 0.0000 0.0000 4.1097 -16.5730 7.3022 -2.1662 7.1250 -0.0000 -0.0000 7.4644 -22.3850 4.0932
